<svg width="513" height="1021" viewBox="0 0 513 1021" fill="none" xmlns="http://www.w3.org/2000/svg">
<path d="M642.677 177.971C648.353 264.259 511.509 450.123 511.509 450.123C511.509 450.123 351.499 283.785 345.823 197.497C340.147 111.209 401.999 36.8868 483.973 31.4948C565.947 26.1027 637.001 91.6822 642.677 177.971Z" fill="#FF984E"/>
<path d="M247.536 300.582C332.065 318.553 473.639 500.745 473.639 500.745C473.639 500.745 270.192 609.586 185.663 591.615C101.134 573.645 46.4602 493.926 63.546 413.56C80.6318 333.193 163.007 282.611 247.536 300.582Z" fill="#FF984E"/>
<path d="M748.448 267.54C667.002 296.428 550.513 495.595 550.513 495.595C550.513 495.595 766.464 576.849 847.911 547.961C929.357 519.073 973.117 432.88 945.652 355.444C918.186 278.007 829.895 238.651 748.448 267.54Z" fill="#FF984E"/>
<path d="M225.427 698.147C272.292 625.473 492.946 557.772 492.946 557.772C492.946 557.772 522.309 786.703 475.444 859.377C428.578 932.051 334.618 954.873 265.577 910.35C196.537 865.828 178.561 770.821 225.427 698.147Z" fill="#FF984E"/>
<path d="M582.564 853.31C532.19 783.022 550.289 552.926 550.289 552.926C550.289 552.926 773.998 609.723 824.372 680.011C874.746 750.299 861.451 846.073 794.678 893.928C727.904 941.783 632.938 923.598 582.564 853.31Z" fill="#FF984E"/>
</svg>
