<svg width="24" height="27" viewBox="0 0 24 27" fill="none" xmlns="http://www.w3.org/2000/svg">
<g clip-path="url(#clip0_313_263)">
<path d="M12 4.56C14.717 4.56 15.056 4.57 16.122 4.62C17.187 4.67 17.912 4.837 18.55 5.085C19.21 5.339 19.766 5.683 20.322 6.238C20.8305 6.73789 21.224 7.34259 21.475 8.01C21.722 8.647 21.89 9.373 21.94 10.438C21.987 11.504 22 11.843 22 14.56C22 17.277 21.99 17.616 21.94 18.682C21.89 19.747 21.722 20.472 21.475 21.11C21.2247 21.7778 20.8311 22.3826 20.322 22.882C19.822 23.3903 19.2173 23.7838 18.55 24.035C17.913 24.282 17.187 24.45 16.122 24.5C15.056 24.547 14.717 24.56 12 24.56C9.283 24.56 8.944 24.55 7.878 24.5C6.813 24.45 6.088 24.282 5.45 24.035C4.78233 23.7845 4.17753 23.3909 3.678 22.882C3.16941 22.3822 2.77593 21.7775 2.525 21.11C2.277 20.473 2.11 19.747 2.06 18.682C2.013 17.616 2 17.277 2 14.56C2 11.843 2.01 11.504 2.06 10.438C2.11 9.372 2.277 8.648 2.525 8.01C2.77524 7.34218 3.1688 6.73732 3.678 6.238C4.17767 5.72923 4.78243 5.33573 5.45 5.085C6.088 4.837 6.812 4.67 7.878 4.62C8.944 4.573 9.283 4.56 12 4.56ZM12 9.56C10.6739 9.56 9.40215 10.0868 8.46447 11.0245C7.52678 11.9621 7 13.2339 7 14.56C7 15.8861 7.52678 17.1578 8.46447 18.0955C9.40215 19.0332 10.6739 19.56 12 19.56C13.3261 19.56 14.5979 19.0332 15.5355 18.0955C16.4732 17.1578 17 15.8861 17 14.56C17 13.2339 16.4732 11.9621 15.5355 11.0245C14.5979 10.0868 13.3261 9.56 12 9.56ZM18.5 9.31C18.5 8.97848 18.3683 8.66053 18.1339 8.42611C17.8995 8.19169 17.5815 8.06 17.25 8.06C16.9185 8.06 16.6005 8.19169 16.3661 8.42611C16.1317 8.66053 16 8.97848 16 9.31C16 9.64152 16.1317 9.95946 16.3661 10.1939C16.6005 10.4283 16.9185 10.56 17.25 10.56C17.5815 10.56 17.8995 10.4283 18.1339 10.1939C18.3683 9.95946 18.5 9.64152 18.5 9.31ZM12 11.56C12.7956 11.56 13.5587 11.8761 14.1213 12.4387C14.6839 13.0013 15 13.7643 15 14.56C15 15.3556 14.6839 16.1187 14.1213 16.6813C13.5587 17.2439 12.7956 17.56 12 17.56C11.2044 17.56 10.4413 17.2439 9.87868 16.6813C9.31607 16.1187 9 15.3556 9 14.56C9 13.7643 9.31607 13.0013 9.87868 12.4387C10.4413 11.8761 11.2044 11.56 12 11.56Z" fill="#F5F8FF"/>
</g>
<defs>
<clipPath id="clip0_313_263">
<rect width="24" height="24" fill="white" transform="translate(0 2.56)"/>
</clipPath>
</defs>
</svg>
