<svg width="24" height="27" viewBox="0 0 24 27" fill="none" xmlns="http://www.w3.org/2000/svg">
<g clip-path="url(#clip0_313_268)">
<path d="M2.00401 24.56L3.35601 19.592C2.46515 18.0649 1.99711 16.328 2.00001 14.56C2.00001 9.037 6.47701 4.56 12 4.56C17.523 4.56 22 9.037 22 14.56C22 20.083 17.523 24.56 12 24.56C10.2328 24.5628 8.49667 24.0952 6.97001 23.205L2.00401 24.56ZM8.39101 9.868C8.26188 9.87602 8.13569 9.91003 8.02001 9.968C7.91153 10.0294 7.81251 10.1062 7.72601 10.196C7.60601 10.309 7.53801 10.407 7.46501 10.502C7.09542 10.983 6.89662 11.5734 6.90001 12.18C6.90201 12.67 7.03001 13.147 7.23001 13.593C7.63901 14.495 8.31201 15.45 9.20101 16.335C9.41501 16.548 9.62401 16.762 9.84901 16.961C10.9524 17.9325 12.2673 18.633 13.689 19.007L14.258 19.094C14.443 19.104 14.628 19.09 14.814 19.081C15.1053 19.066 15.3896 18.9871 15.647 18.85C15.813 18.762 15.891 18.718 16.03 18.63C16.03 18.63 16.073 18.602 16.155 18.54C16.29 18.44 16.373 18.369 16.485 18.252C16.568 18.166 16.64 18.065 16.695 17.95C16.773 17.787 16.851 17.476 16.883 17.217C16.907 17.019 16.9 16.911 16.897 16.844C16.893 16.737 16.804 16.626 16.707 16.579L16.125 16.318C16.125 16.318 15.255 15.939 14.724 15.697C14.668 15.6726 14.608 15.6587 14.547 15.656C14.4786 15.649 14.4095 15.6567 14.3443 15.6786C14.2791 15.7005 14.2193 15.7361 14.169 15.783V15.781C14.164 15.781 14.097 15.838 13.374 16.714C13.3325 16.7698 13.2754 16.8119 13.2098 16.8351C13.1443 16.8582 13.0733 16.8613 13.006 16.844C12.9409 16.8266 12.877 16.8045 12.815 16.778C12.691 16.726 12.648 16.706 12.563 16.669L12.558 16.667C11.9859 16.4172 11.4562 16.0798 10.988 15.667C10.862 15.557 10.745 15.437 10.625 15.321C10.2316 14.9442 9.88873 14.518 9.60501 14.053L9.54601 13.958C9.50364 13.8942 9.46937 13.8253 9.44401 13.753C9.40601 13.606 9.50501 13.488 9.50501 13.488C9.50501 13.488 9.74801 13.222 9.86101 13.078C9.9551 12.9583 10.0429 12.8338 10.124 12.705C10.242 12.515 10.279 12.32 10.217 12.169C9.93701 11.485 9.64701 10.804 9.34901 10.128C9.29001 9.994 9.11501 9.898 8.95601 9.879C8.90201 9.873 8.84801 9.867 8.79401 9.863C8.65972 9.85633 8.52515 9.85866 8.39101 9.868Z" fill="#F5F8FF"/>
</g>
<defs>
<clipPath id="clip0_313_268">
<rect width="24" height="24" fill="white" transform="translate(0 2.56)"/>
</clipPath>
</defs>
</svg>
